<svg xmlns="http://www.w3.org/2000/svg" width="187.81" height="209.41" viewBox="0 0 187.81 209.41">
  <defs>
    <style>
      .cls-1 {
        fill: #fff;
      }
    </style>
  </defs>
  <g id="Calque_2" data-name="Calque 2">
    <g id="Calque_3" data-name="Calque 3">
      <g>
        <path class="cls-1" d="M94.18,0c28.26,0,51,9.7,68.14,28.81,16.9,19.11,25.49,44,25.49,75.9,0,31.58-8.59,56.78-25.49,75.9-17.17,19.11-39.88,28.8-68.14,28.8-28.53,0-51.52-9.69-68.69-28.8C8.59,161.49,0,136.29,0,104.71c0-31.86,8.59-56.79,25.49-75.9C42.66,9.7,65.65,0,94.18,0Zm0,31.58c-16.9,0-31,6.92-41,18.84-10,13-15.51,31.85-15.51,54.29,0,18,5,29.64,14.13,35.73q15.38,9.13,42.38,9.14c35.73,0,56-9.14,56-44.87C150.14,58.45,128.25,31.58,94.18,31.58Z"/>
        <path class="cls-1" d="M124.18,84.18a13.14,13.14,0,0,1-21.59-15c-5.75-1.6-15.28-2.9-24.89,1.84C63.16,78.2,53.13,96.87,58.9,108.62c5.92,12,25.87,11.56,37.59,11.27,10.88-.26,28.84-.7,33.82-11.27C133.56,101.74,130.48,92.23,124.18,84.18Z"/>
      </g>
    </g>
  </g>
</svg>
