<svg xmlns="http://www.w3.org/2000/svg" width="10.06mm" height="10.63mm" viewBox="0 0 65.37 55.63">
  <defs>
    <style>
      .cls-1, .cls-4 {
        fill: none;
      }

      .cls-1, .cls-2, .cls-3, .cls-4 {
        stroke: #1d1d1b;
        stroke-miterlimit: 10;
      }

      .cls-1, .cls-3, .cls-4 {
        stroke-width: 2.83px;
      }

      .cls-2, .cls-3 {
        fill: #1d1d1b;
      }

      .cls-4 {
        stroke-linecap: round;
      }
    </style>
  </defs>
  <g id="Calque_2" data-name="Calque 2">
    <g id="Calque_1-2" data-name="Calque 1">
      <g>
        <path class="cls-1" d="M3,43.66,3,29.1A28,28,0,0,1,9.52,11.4C24.42-6,59.73-.68,61.38,27.42l.15,17"/>
        <path class="cls-2" d="M55.51,11.88a20.49,20.49,0,0,1-4.4.58c-9.61.24-11.73-6.69-18.87-6.64-6.84.06-8.37,6.24-18.86,7.17a27.64,27.64,0,0,1-5,0,29.71,29.71,0,0,1,10-8.36A30.24,30.24,0,0,1,29,1.53a31.92,31.92,0,0,1,8.91.39A32.45,32.45,0,0,1,50,6.9Z"/>
        <rect class="cls-3" x="6.75" y="35.77" width="6.54" height="17.76" rx="2.81"/>
        <rect class="cls-3" x="51.44" y="35.56" width="6.54" height="17.76" rx="2.81"/>
        <ellipse class="cls-3" cx="5.47" cy="44.52" rx="4.06" ry="4.43"/>
        <ellipse class="cls-3" cx="59.9" cy="45.01" rx="4.06" ry="4.65"/>
        <line class="cls-4" x1="31.96" y1="34.96" x2="32.09" y2="54.21"/>
        <line class="cls-4" x1="26.34" y1="38.04" x2="26.47" y2="52.08"/>
        <line class="cls-4" x1="38.51" y1="37.77" x2="38.64" y2="51.81"/>
        <line class="cls-4" x1="43.85" y1="40.85" x2="43.99" y2="47.93"/>
        <line class="cls-4" x1="20.73" y1="40.85" x2="20.86" y2="47.93"/>
      </g>
    </g>
  </g>
</svg>
