<svg xmlns="http://www.w3.org/2000/svg" width="200.88" height="168.49" viewBox="0 0 200.88 168.49">
  <defs>
    <style>
      .cls-1, .cls-2 {
        fill: #fff;
      }

      .cls-2 {
        font-size: 42.35px;
        font-family: DINAlternate-Bold, DIN Alternate;
        font-weight: 700;
      }

      .cls-3 {
        fill: none;
        stroke: #fff;
        stroke-linecap: round;
        stroke-linejoin: round;
        stroke-width: 2.83px;
      }
    </style>
  </defs>
  <g id="Calque_2" data-name="Calque 2">
    <g id="Calque_3" data-name="Calque 3">
      <g>
        <path class="cls-1" d="M13.07,95l9.76-21.61h4.66L17.62,95h7.63V86.34h4.17V95h2.35v4H29.42v4.49H25.25V99.08H13.07Z"/>
        <path class="cls-1" d="M53.77,82.14H57V91.2h8.76v3.3H57v9.06H53.77V94.5H45V91.2h8.79Z"/>
        <path class="cls-1" d="M96.66,77.27,85.14,92a5.73,5.73,0,0,0-.91,1.65A6.18,6.18,0,0,0,84.06,95a4.6,4.6,0,0,0,1,3,4.17,4.17,0,0,0,5.89.2,5.06,5.06,0,0,0,1.43-3.2l4.17,0a9.34,9.34,0,0,1-2.49,6.2,7.67,7.67,0,0,1-5.69,2.4,8.22,8.22,0,0,1-6.1-2.52,9,9,0,0,1-.59-11.45l9.48-12.11L80,77.41l0-4.3,16.66.11Z"/>
        <path class="cls-1" d="M112.52,90.41h23.17V94.1H112.52Zm0,9.46h23.17v3.69H112.52Z"/>
        <path class="cls-1" d="M57.55,54a7.9,7.9,0,0,1,7.63-.76A8.82,8.82,0,0,1,66.28,50a6.26,6.26,0,0,1,2.35-2.61A8.68,8.68,0,0,1,75.19,46a7.83,7.83,0,0,1,5.31,3.56,8,8,0,0,1,1.23,6.37,8.81,8.81,0,0,1-3.89,5.42,6.71,6.71,0,0,1-3.27,1.19,10,10,0,0,1-3.47-.34,7.87,7.87,0,0,1-3.71,6.7,8.67,8.67,0,0,1-6.87,1.42,9,9,0,0,1-5.61-3.91A8.9,8.9,0,0,1,57.55,54Zm2.34,3.47a4.58,4.58,0,0,0-2,3.08,4.43,4.43,0,0,0,.65,3.52,4.51,4.51,0,0,0,3,2,4.85,4.85,0,0,0,5.72-3.77,4.77,4.77,0,0,0-3.66-5.55A4.64,4.64,0,0,0,59.89,57.45ZM71,50.8a4.19,4.19,0,0,0-1.33,5.89,4.25,4.25,0,0,0,2.57,1.83,4.2,4.2,0,0,0,3.38-.7,4.26,4.26,0,0,0,2-2.86,4.52,4.52,0,0,0-3.2-4.86A4.2,4.2,0,0,0,71,50.8Z"/>
        <text class="cls-2" transform="translate(145.3 93.41)">5</text>
        <text class="cls-2" transform="translate(118.78 108.86)">6</text>
        <path class="cls-3" d="M1.42,1.42H139.64A31.62,31.62,0,0,1,171.26,33v134a0,0,0,0,1,0,0H50.83A49.41,49.41,0,0,1,1.42,117.67V1.42a0,0,0,0,1,0,0Z"/>
      </g>
    </g>
  </g>
</svg>
