<svg xmlns="http://www.w3.org/2000/svg" width="172.27" height="168.09" viewBox="0 0 172.27 168.09">
  <defs>
    <style>
      .cls-1, .cls-4 {
        fill: #fff;
      }

      .cls-2, .cls-3, .cls-4, .cls-5 {
        stroke: #fff;
        stroke-linecap: round;
      }

      .cls-2 {
        stroke-miterlimit: 10;
      }

      .cls-2, .cls-5 {
        stroke-width: 2.83px;
      }

      .cls-3, .cls-5 {
        fill: none;
      }

      .cls-3, .cls-4, .cls-5 {
        stroke-linejoin: round;
      }

      .cls-3, .cls-4 {
        stroke-width: 1.42px;
      }
    </style>
  </defs>
  <g id="Calque_2" data-name="Calque 2">
    <g id="Calque_3" data-name="Calque 3">
      <g>
        <g>
          <path class="cls-1" d="M23.42,116.77l3.73-2.69,1.6,2.21.07-.05A7.37,7.37,0,0,1,32,110.16a8.25,8.25,0,0,1,3.74-1.57,12.18,12.18,0,0,1,3.64.42,8.92,8.92,0,0,1,4.05-7.09,7.73,7.73,0,0,1,5.67-1.31q3.28.45,5.95,4l10,13.9-3.72,2.68-9-12.46a5.89,5.89,0,0,0-3.48-2.58,4.41,4.41,0,0,0-3.6.82,4.48,4.48,0,0,0-1.94,3.17,5.79,5.79,0,0,0,1.31,4.15l9,12.46L50,129.41,41,117a5.9,5.9,0,0,0-3.48-2.58,4.47,4.47,0,0,0-3.62.84A4.4,4.4,0,0,0,32,118.36a5.63,5.63,0,0,0,1.29,4.16l9,12.47-3.73,2.68Z"/>
          <path class="cls-1" d="M63.8,105.22a26.69,26.69,0,0,1-3.48-6,10,10,0,0,1-.57-4.46,9.7,9.7,0,0,1,1-3.8A10.25,10.25,0,0,1,64,87.25a10.55,10.55,0,0,1,4.67-2,9.55,9.55,0,0,1,3.83.37,9,9,0,0,1,4.08,1.92,28.92,28.92,0,0,1,4.52,5.2,28.56,28.56,0,0,1,3.48,5.89,10,10,0,0,1,.6,4.57,8.68,8.68,0,0,1-.28,1.71,5.44,5.44,0,0,1-.67,1.93,9.67,9.67,0,0,1-3.3,3.89,9.5,9.5,0,0,1-4.66,1.85,9.86,9.86,0,0,1-3.82-.2,10.93,10.93,0,0,1-4.11-2A25.94,25.94,0,0,1,63.8,105.22Zm-4.31-24.7,0,5.88-4,2.86-.37-9.73,4.7-3.39L69,79.54l-4,2.87Zm17.42,15.3a27.66,27.66,0,0,0-2.79-3.44,5.49,5.49,0,0,0-2.2-1.31,3.9,3.9,0,0,0-2.26-.22,5.58,5.58,0,0,0-4,2.89A4.69,4.69,0,0,0,65.11,96a6.93,6.93,0,0,0,.58,2.48A23.76,23.76,0,0,0,68,102.18a21.92,21.92,0,0,0,2.77,3.32A7.22,7.22,0,0,0,73,106.93a6.39,6.39,0,0,0,2.26.15,5.17,5.17,0,0,0,2.34-.94,5.11,5.11,0,0,0,1.67-2,5,5,0,0,0,.53-2.17,5.89,5.89,0,0,0-.61-2.59A25.28,25.28,0,0,0,76.91,95.82Z"/>
          <line class="cls-2" x1="35.92" y1="88" x2="102.68" y2="103.47"/>
          <g>
            <polygon class="cls-3" points="106.44 99.97 109.25 79.9 120.36 90.88 106.44 99.97"/>
            <path class="cls-3" d="M109.25,79.9,150.4,28.51l2.79,2.89,7.11,7.38-39.94,52.1"/>
            <line class="cls-3" x1="112.88" y1="83.24" x2="153.19" y2="31.4"/>
            <line class="cls-3" x1="116.72" y1="87.06" x2="156.06" y2="34.72"/>
          </g>
          <polygon class="cls-4" points="108.13 91.74 108.56 92.09 112.87 95.64 107.4 99.01 108.13 91.74"/>
        </g>
        <path class="cls-5" d="M1.42,1.42H139.31A31.54,31.54,0,0,1,170.85,33V166.68a0,0,0,0,1,0,0H50.71A49.29,49.29,0,0,1,1.42,117.39V1.42A0,0,0,0,1,1.42,1.42Z"/>
      </g>
    </g>
  </g>
</svg>
