<svg xmlns="http://www.w3.org/2000/svg" width="280.03" height="282.84" viewBox="0 0 280.03 282.84">
  <defs>
    <style>
      .cls-1 {
        fill: #613d26;
      }

      .cls-2 {
        fill: #ad6d44;
      }

      .cls-3 {
        fill: #e5bb9e;
      }

      .cls-4 {
        fill: #e08c57;
      }
    </style>
  </defs>
  <g id="Calque_2" data-name="Calque 2">
    <g id="Calque_4" data-name="Calque 4">
      <g>
        <path class="cls-1" d="M25.33,282.79c-7.68,0-15.37-.08-23,0-1.88,0-2.25-.36-2.25-2.2q.11-57.1.05-114.23v-5.36c.24-.13.58-.2.7-.39,5.34-9.07,13-16.12,21-22.9a37.11,37.11,0,0,0,11.38-17.24c2-6.08,2.42-12.36,3.23-18.61a53.2,53.2,0,0,1,3.89-15.13c2.59-5.8,6.39-10.91,9.3-16.53,5.69-11,8.19-23,12-34.65A64.73,64.73,0,0,1,73.2,14.15c4.46-5.34,10.28-9.21,15.25-14H246c1.44,2.14,3,4.23,4.31,6.43,7.59,12.45,16.32,24,27.34,33.82C278.32,41,278.83,42,280,42V178.21c-2.09-.43-3.8,1-5.82,1.13-10.2.84-18.34-3.73-26.11-9.26-3.85-2.75-7.54-5.71-11.3-8.57-5.82-4.41-11.57-8.92-17.49-13.21-3.91-2.83-7.77-5.78-11.93-8.22-5.33-3.11-11.81-2.13-14.75,2-1.46,2.07-3.23,3.8-4.82,5.71s-2.8,1.68-4.42,0c-3.8-4-5.63-9.17-8.71-13.6-3.22-4.61-6.39-9.15-12.12-11.18-2-.71-3.77-.62-5.28.8a18.65,18.65,0,0,0-3.85,4.72c-1.47,2.7-2.63,5.56-4.56,8.06-4,5.26-7.82,6.47-14.59,5.06-5.21-1.09-10.35-2-16-1.23a49,49,0,0,0-16,5.26C93,150.49,84.91,157.18,76.8,163.74c-2.7,2.18-5.28,4.55-8.06,6.6a55.34,55.34,0,0,0-16,17.94c-3,5.51-4.6,11.57-6.79,17.4-3.92,10.45-9,20.45-12.5,31.08-3.31,10-6.77,19.79-5.88,30.46.38,4.69-.77,9.21-1.14,13.81A2.46,2.46,0,0,1,25.33,282.79Z"/>
        <path class="cls-2" d="M25.33,282.79A2.46,2.46,0,0,0,26.41,281c.37-4.6,1.52-9.12,1.14-13.81-.89-10.67,2.57-20.51,5.88-30.46C37,226.13,42,216.13,45.93,205.68c2.19-5.83,3.74-11.89,6.79-17.4a55.34,55.34,0,0,1,16-17.94c2.78-2.05,5.36-4.42,8.06-6.6,8.11-6.56,16.16-13.25,25.49-18.07a49,49,0,0,1,16-5.26c5.6-.78,10.74.14,16,1.23,6.77,1.41,10.55.2,14.59-5.06,1.93-2.5,3.09-5.36,4.56-8.06a18.65,18.65,0,0,1,3.85-4.72c1.51-1.42,3.26-1.51,5.28-.8,5.73,2,8.9,6.57,12.12,11.18,3.08,4.43,4.91,9.59,8.71,13.6,1.62,1.71,2.89,1.86,4.42,0s3.36-3.64,4.82-5.71c2.94-4.15,9.42-5.13,14.75-2,4.16,2.44,8,5.39,11.93,8.22,5.92,4.29,11.67,8.8,17.49,13.21,3.76,2.86,7.45,5.82,11.3,8.57,7.77,5.53,15.91,10.1,26.11,9.26,2-.16,3.73-1.56,5.82-1.13V188.4c-5.73,1.18-11.46,2.38-17.38,1.27,5.77,2.2,11.57,1.59,17.38.34v15c-.73,0-1.47-.05-2.2,0A54.16,54.16,0,0,1,252,200.34c-6.08-2.69-11.77-6.12-17.91-8.68-9.13-3.8-17.67-3.81-25.49,3-3.44,3-6.39,3.19-10.16.65-4.26-2.86-7.48-6.77-10.62-10.71a68,68,0,0,0-8.95-9.39c-4.3-3.67-13-4.31-18.71-.21-3.46,2.47-7,3.66-11.5,2.85-5.77-1-8.44,1.58-8.58,7.44v.53c0,5.22,1.42,10.22,2.58,15.25,2.28,9.84,5.23,19.5,8.31,29.12,2.24,7,2.41,14.38,3.69,21.56,1.93,10.79,7,20.64,10.11,31.07H138.94a57.67,57.67,0,0,1-2.22-9.34c-1-5.62-2.08-11.23-5.57-16-2.92-4-7.19-5.36-12-3.88a46,46,0,0,0-7.52,3.17,29.1,29.1,0,0,1-11.23,3.07c-5.81.44-10,4.84-8.82,11.28.78,4.32,3.36,7.83,5.07,11.74Z"/>
        <path class="cls-3" d="M280,212q0,34.45,0,68.91c0,1.6-.33,1.92-2,1.92q-54.75-.09-109.49,0A82.37,82.37,0,0,0,165.52,272c-1.85-5.6-3.9-11.26-4-17.11-.12-11.5-4.29-22-7.52-32.73-2.21-7.35-4.65-14.66-4.68-22.45,0-3.34.42-3.92,4-3.74a11.22,11.22,0,0,0,8.36-3.32,48.72,48.72,0,0,0,4.62-4.58,8.93,8.93,0,0,1,3.56-2.36c6.16-2.56,10.71.85,14.09,4.79,4.2,4.92,8.31,9.91,13.17,14.23a17.44,17.44,0,0,0,8.53,4.58c6.25,1.08,12.2-.43,17.81-2.79a24.43,24.43,0,0,1,17.88-.66C253.91,210.14,266.6,213.07,280,212Z"/>
        <path class="cls-3" d="M88.45.16c-5,4.78-10.79,8.65-15.25,14A64.73,64.73,0,0,0,61.57,35.6c-3.85,11.61-6.35,23.65-12,34.65-2.91,5.62-6.71,10.73-9.3,16.53a53.2,53.2,0,0,0-3.89,15.13c-.81,6.25-1.27,12.53-3.23,18.61a37.11,37.11,0,0,1-11.38,17.24c-8,6.78-15.61,13.83-20.95,22.9-.12.19-.46.26-.7.39V128.87c3.11-2.24,5.27-5.33,7.67-8.19,6.94-8.28,10.36-17.89,11.58-28.46.91-7.83,3.22-15.22,8.51-21.54A143.82,143.82,0,0,0,49.72,34.07,144.87,144.87,0,0,1,60.57,13.26C63.69,8.31,67.93,4.32,72,.16Z"/>
        <path class="cls-4" d="M280,212c-13.39,1.07-26.08-1.86-38.61-6.14a24.43,24.43,0,0,0-17.88.66c-5.61,2.36-11.56,3.87-17.81,2.79a17.44,17.44,0,0,1-8.53-4.58c-4.86-4.32-9-9.31-13.17-14.23-3.38-3.94-7.93-7.35-14.09-4.79a8.93,8.93,0,0,0-3.56,2.36,48.72,48.72,0,0,1-4.62,4.58,11.22,11.22,0,0,1-8.36,3.32c-3.57-.18-4,.4-4,3.74,0,7.79,2.47,15.1,4.68,22.45,3.23,10.74,7.4,21.23,7.52,32.73.05,5.85,2.1,11.51,4,17.11a82.37,82.37,0,0,1,3.06,10.79h-3.85c-3.15-10.43-8.18-20.28-10.11-31.07-1.28-7.18-1.45-14.53-3.69-21.56-3.08-9.62-6-19.28-8.31-29.12-1.16-5-2.54-10-2.58-15.25v-.53c.14-5.86,2.81-8.49,8.58-7.44,4.5.81,8-.38,11.5-2.85,5.76-4.1,14.41-3.46,18.71.21a68,68,0,0,1,8.95,9.39c3.14,3.94,6.36,7.85,10.62,10.71,3.77,2.54,6.72,2.34,10.16-.65,7.82-6.78,16.36-6.77,25.49-3,6.14,2.56,11.83,6,17.91,8.68A54.16,54.16,0,0,0,277.79,205c.73-.05,1.47,0,2.2,0Z"/>
        <path class="cls-2" d="M59.91.16H67C67,.41,67,.74,66.77.9c-6.25,5.79-10.34,13-14.21,20.37C48.06,29.86,44.69,39,39.82,47.39A127.34,127.34,0,0,1,26.71,66.67c-7.48,8.75-10.2,19-11.24,30a37.83,37.83,0,0,1-1.7,6.64,45,45,0,0,1-7.27,14,36.18,36.18,0,0,1-6.42,7.25V69.88a5.61,5.61,0,0,0,1.1-.71c2-2.08,4-3.77,6.78-.87,1.16,1.2,2.37-.19,2.82-1.09C12,64.72,14,62.77,15.66,60.6c4-5.29,8.48-10.25,12.42-15.58,5.77-7.8,9.81-16.55,13.75-25.33C44.74,13.18,47,6.38,50.58.16h6c-.91,2.11-2.45,4-2.28,6.57C56.17,4.5,58.66,2.85,59.91.16Z"/>
        <path class="cls-4" d="M96.68,282.79c-1.71-3.91-4.29-7.42-5.07-11.74-1.17-6.44,3-10.84,8.82-11.28a29.1,29.1,0,0,0,11.23-3.07,46,46,0,0,1,7.52-3.17c4.78-1.48,9-.14,12,3.88,3.49,4.81,4.58,10.42,5.57,16a57.67,57.67,0,0,0,2.22,9.34Z"/>
        <path class="cls-2" d="M.08,57C.08,39.12.16,21.24,0,3.35,0,.58.6-.43,3.38.16c-2.27,5-2.5,10.32-2.16,15.68.25,4,2.43,5.16,6.05,3.22a13.08,13.08,0,0,0,1.37-.86C15.21,13.68,19.19,7.32,22,.16H38.5a7.4,7.4,0,0,1-.14,2.37c-1.55,3.91-3.15,7.81-4.85,11.66C28.77,25,21.39,33.86,12.9,42a71.16,71.16,0,0,0-7,7.34C4,51.87,2.53,54.82.08,57Z"/>
        <path class="cls-1" d="M.08,57C2.53,54.82,4,51.87,5.94,49.33a71.16,71.16,0,0,1,7-7.34c8.49-8.13,15.87-17,20.61-27.8,1.7-3.85,3.3-7.75,4.85-11.66A7.4,7.4,0,0,0,38.5.16H50.58c-3.59,6.22-5.84,13-8.75,19.53-3.94,8.78-8,17.53-13.75,25.33-3.94,5.33-8.41,10.29-12.42,15.58C14,62.77,12,64.72,10.78,67.21c-.45.9-1.66,2.29-2.82,1.09-2.83-2.9-4.76-1.21-6.78.87a5.61,5.61,0,0,1-1.1.71Z"/>
        <path class="cls-3" d="M280,42c-1.16,0-1.67-1-2.38-1.58-11-9.8-19.75-21.37-27.34-33.82C248.93,4.39,247.4,2.3,246,.16c10.76,0,21.51,0,32.27,0,1.55,0,1.81.34,1.8,1.79C280,15.27,280,28.63,280,42Z"/>
        <path class="cls-1" d="M.08,124.58a36.18,36.18,0,0,0,6.42-7.25,45,45,0,0,0,7.27-14,37.83,37.83,0,0,0,1.7-6.64c1-11,3.76-21.26,11.24-30A127.34,127.34,0,0,0,39.82,47.39C44.69,39,48.06,29.86,52.56,21.27c3.87-7.41,8-14.58,14.21-20.37C67,.74,67,.41,67,.16H72c-4,4.16-8.29,8.15-11.41,13.1A144.87,144.87,0,0,0,49.72,34.07,143.82,143.82,0,0,1,27.84,70.68c-5.29,6.32-7.6,13.71-8.51,21.54-1.22,10.57-4.64,20.18-11.58,28.46-2.4,2.86-4.56,5.95-7.67,8.19Z"/>
        <path class="cls-4" d="M22,.16c-2.85,7.16-6.83,13.52-13.4,18a13.08,13.08,0,0,1-1.37.86c-3.62,1.94-5.8.81-6-3.22C.88,10.48,1.11,5.19,3.38.16Z"/>
        <path class="cls-4" d="M280,190c-5.81,1.25-11.61,1.86-17.38-.34,5.92,1.11,11.65-.09,17.38-1.27Z"/>
        <path class="cls-4" d="M59.91.16c-1.25,2.69-3.74,4.34-5.58,6.57C54.16,4.16,55.7,2.27,56.61.16Z"/>
      </g>
    </g>
  </g>
</svg>
