<svg xmlns="http://www.w3.org/2000/svg" width="298.74" height="299.77" viewBox="0 0 298.74 299.77">
  <defs>
    <style>
      .cls-1 {
        fill: #ad6d44;
      }

      .cls-2 {
        fill: #613d26;
      }

      .cls-3 {
        fill: #e5bb9e;
      }

      .cls-4 {
        fill: #e08c57;
      }

      .cls-5 {
        fill: #f6a36f;
      }

      .cls-6 {
        fill: #fecc77;
      }

      .cls-7 {
        fill: #fec075;
      }

      .cls-8 {
        fill: #7fbba0;
      }
    </style>
  </defs>
  <g id="Calque_2" data-name="Calque 2">
    <g id="Calque_4" data-name="Calque 4">
      <g>
        <path class="cls-1" d="M298.69,32.3V45.39a108.88,108.88,0,0,0-20.45,1.71,84.76,84.76,0,0,0-10.86,2.31,108.13,108.13,0,0,0-20,8.12c-8.49,4.54-15,11.15-20.67,18.93-2.52,3.48-5.17,6.87-7.83,10.23-5,6.34-11.51,11-17.13,16.74a40.66,40.66,0,0,0-6.39,8.23,155.11,155.11,0,0,0-7.78,15.72c-2.34,5.36-4.68,10.74-7.44,15.94A109.29,109.29,0,0,1,169,160.73c-5.75,7.13-7.86,15.54-8.87,24.38a40.58,40.58,0,0,1-1.26,6.55A46.48,46.48,0,0,1,147.42,211c-5.3,5.55-10.37,11.24-14.2,18-2.89,5.09-5.9,9.93-10.5,13.71a37.06,37.06,0,0,1-22.55,8.45c-1.94.1-3.63-.81-5.48-.87a35.17,35.17,0,0,1-8.52-1.69,63,63,0,0,1-7.46-2.93c-4.74-2-9.84-2.81-14.86-3.79-4-.79-7.38-3-10.68-5.37a49.43,49.43,0,0,1-10.36-10.71,43.29,43.29,0,0,1-5.32-9.28,40.28,40.28,0,0,0-9.64-14.44c-2.33-2.14-4.54-4.44-7-6.45a13.59,13.59,0,0,0-1.53-1.34c-1.91-1.13-2.85-.54-3,1.71a16.64,16.64,0,0,0,1.32,7.23,51.28,51.28,0,0,1,3.23,15.89c.13,4.55-.07,9.06.72,13.65,1,5.88,1.69,11.82,2.75,17.71,1.11,6.15,2.24,12.28,3.66,18.38a235.26,235.26,0,0,0,7.48,25.69c.6,1.7,1.94,3.18,1.64,5.19H33c-1-2.35-2-4.67-2.94-7.06-2.91-7.74-6.71-15.16-8.52-23.3s-3.34-16.54-4.8-24.85c-1.24-7-2.79-14-2.76-21.17a28.16,28.16,0,0,0-3.15-13.91A75.45,75.45,0,0,1,3.1,187.65,40.27,40.27,0,0,0,0,177.7v-36a1.09,1.09,0,0,1,.82.7c2.39,6.85,6.2,12.78,10.61,18.43,1.9,2.44,4,4.73,5.78,7.27a39.06,39.06,0,0,0,6.77,7,2.06,2.06,0,0,0-.15-2.39C21,168.32,18,164,15.22,159.58a47.69,47.69,0,0,1-6.1-13.19c-1.34-5.14-1.88-10.5-3.68-15.54C4.32,127.73,3.78,124.18,0,123V33.23a9.3,9.3,0,0,1,4.5,3.7C6.88,40.09,7.12,44,8.14,47.64a24.6,24.6,0,0,0,8.25,12.78c4.24,3.47,9.15,5.62,14,7.94C44.24,75,58.05,81.71,72.28,87.44a95.15,95.15,0,0,0,30.21,7,101.06,101.06,0,0,0,19.34-.83A32.53,32.53,0,0,0,144.72,79.8a69.22,69.22,0,0,1,11.64-13,355.1,355.1,0,0,0,27.17-24.46,54.37,54.37,0,0,1,10.31-8.25c5.44-3.33,11.11-6.23,16.53-9.57a257.68,257.68,0,0,1,40.94-21A51,51,0,0,1,260.79.6c.58-.11,1.29-.28,1.56.49s-.27,1-.74,1.28c-.83.52-1.65,1.07-2.51,1.54-7.67,4.17-15.67,7.6-23.45,11.5-9.89,4.95-19,11.4-28.55,16.94C198,37.6,190.28,44.5,183,52.11c-6.9,7.17-13.05,15-19.7,22.42a46.5,46.5,0,0,0-10.29,19,81.72,81.72,0,0,1-3.17,9.72c-1.73,4.18-1.72,8.49-1.54,12.85.15,3.64,2.09,4.66,5.13,2.71a24,24,0,0,0,3.93-3.11c4.47-4.4,7-10.06,9.38-15.8,2.84-7,5.81-13.82,10.49-19.76,6.07-7.69,12-15.51,18.07-23.21,1-1.21,1.87-2.68,3.55-3.08h0c-.31.93-.62,1.86-.92,2.79h0A1.59,1.59,0,0,0,197,58h0l-.46,1c-3.92,5-6.9,10.73-9.93,16.36l-.27.3.2.11.08-.41c.9,0,1.18-.81,1.66-1.4,4-4.9,7.19-10.35,10.75-15.54,5.79-8.44,12.61-15.82,21.07-21.37a124.63,124.63,0,0,1,30.37-14.66c2.33-.75,4.78-1.19,6.92-2.58a63.7,63.7,0,0,0-19.27,5.07c-2.52.49-4.7,2.06-7.25,2.51a25.9,25.9,0,0,1,6.23-4.07,128.73,128.73,0,0,1,32.4-11.84c5.47-1.16,11-1.85,16.51-.56,5.32,1.24,7.17,4.87,3.74,9.51a18.89,18.89,0,0,1-1.59,2c-2,2.11-4.05,4.17-6,6.29-1.52,1.62-1.29,2.39.82,3,.43.12.89.14,1.33.22C289.07,32.68,293.89,32.15,298.69,32.3ZM134.22,159.47a1.41,1.41,0,0,0,1.15-.64c2.93-4.75,4.78-10.08,7.46-15-3.86,4.62-6.29,10.09-8.61,15.62l-.27.3.2.1ZM241,32.59c-3.33-1.08-5.78,1-8.3,2-5.46,2.18-10.24,5.77-14.81,9.52A61.48,61.48,0,0,0,203.55,61.9c-5.32,9.49-10.73,18.88-17.47,27.41A31,31,0,0,0,181.72,97c-2.35,5.92-4.56,11.91-7,17.79a68.73,68.73,0,0,1-15.48,22.54c-7.33,7.26-13.58,15.19-15.18,26.05a2.12,2.12,0,0,0,.54,2.06c.87.86,1.19-.28,1.58-.61a21.23,21.23,0,0,0,2.29-2.52c1.45-1.71,3.07-2.46,4.94-.74,1.32,1.22,2.18.24,2.74-.7,2.89-4.92,6.6-9.22,10.07-13.67a118.07,118.07,0,0,0,13.65-23.32c2.52-5.46,4.5-11.15,6.74-16.74a56.33,56.33,0,0,1,12.67-18.67,37.69,37.69,0,0,0,5.59-7.18c4.53-7.63,8.7-15.49,13-23.27,2.82-5.12,6.79-9.31,10.61-13.55,1.78-2,4-3.62,5.93-5.52C236.53,36.87,239.33,35.52,241,32.59ZM67.83,208.46a65.92,65.92,0,0,0,8.56,8.76,63.65,63.65,0,0,0,17.79,10.22,24.66,24.66,0,0,0,9.09,1.89,19.59,19.59,0,0,0,9.33-2.67c4.36-2.61,5.5-11.27,2.11-14.69-2.86-2.89-6.35-4.31-9.86-5.56a118.94,118.94,0,0,0-21.61-5c-2-.32-2.18.7-2.59,1.92a11.86,11.86,0,0,0-.16,1.61c-.4,2-1.17,3.48-3.5,3.32a5.87,5.87,0,0,0-3.26.55,3.32,3.32,0,0,1-3.25-.16A2.58,2.58,0,0,0,67.83,208.46ZM191.56,108.15a3,3,0,0,0,2-1.49,56.2,56.2,0,0,1,9.14-9.91c2.22-1.84,4.41-3.74,6.47-5.77,5.41-5.31,9.84-11.5,14.47-17.5,5.82-7.56,12-14.7,20.08-19.8,1.35-.85,2.61-1.84,3.92-2.76A16.59,16.59,0,0,0,242,53.3c-9.16,5.31-15.92,13.27-22.45,21.53-1.3,1.64-2.19,3.89-5.17,4.77,3.41-8,7.46-15,11.41-22-2.11,1.14-3.28,3.15-4.56,5a166.48,166.48,0,0,0-9.58,16.07c-3.86,7.15-9.52,12.75-14.59,18.87A28,28,0,0,0,191.56,108.15ZM38.62,146.44a.64.64,0,0,0-.54,1,10.75,10.75,0,0,0,1.08,1.74,67,67,0,0,0,12,12.18c.64.53,1.41,1.46,2.09.75s-.16-1.47-.73-2.09c-4-4.32-8.1-8.57-12.39-12.6C39.72,147,39.32,146.48,38.62,146.44Zm105.15-3.56a2,2,0,0,0,.14-.34s-.13-.11-.15-.1-.17.15-.26.22ZM227.12,56.2,227,56a2.2,2.2,0,0,0-.28.24s.05.1.08.16Zm-81.85,84.68.1-.16-.16,0Z"/>
        <path class="cls-2" d="M298.69,67.83V231.47c-3.62-3.37-5-8.24-7.69-12.25s-5.27-8-10-9.72c-1.55-.57-3-.58-4.16.61a13.81,13.81,0,0,0-3.21,4.09c-1.3,2.82-2.88,5.51-4.41,8.21-1.9,3.37-7.15,4.45-12,3.16-3.35-.89-7-1.71-10.35-1.27a40.75,40.75,0,0,0-13.51,4,90.92,90.92,0,0,0-13.73,9.21c-3.51,2.69-6.87,5.59-10.23,8.48-5.71,4.9-11.66,9.45-16,15.77a47.78,47.78,0,0,0-6.15,12.92q-2.37,7.53-5.23,14.86c-1.32,3.4-3,6.64-4,10.2H116.6c.61-3.33.76-6.7,1.58-10a60.61,60.61,0,0,1,13.07-25.35c6-7,12-14,16.66-22.08a67.06,67.06,0,0,1,14.78-17.61,43.06,43.06,0,0,0,8.17-9.22c4.68-7.17,5.35-15.48,6.25-23.72.62-5.63,1.73-11.11,4.35-16.17,2.43-4.7,5.25-9.17,7.46-14,4.1-8.95,6-18.62,8.94-27.95,2.72-8.68,6.55-16.72,13.22-22.79C220,102.67,228.44,94,236.87,85.31a56.57,56.57,0,0,1,13.64-10.48,70.74,70.74,0,0,1,15.51-6c3.46-.93,6.93-2,10.58-2h15.29C294.23,66.61,296.43,67.42,298.69,67.83Z"/>
        <path class="cls-1" d="M0,10.32V0H229.56a3.91,3.91,0,0,1-1.76,1c-4.54,1.84-9.13,3.59-13.61,5.58-9,4-17.88,8.14-26.82,12.21-5.43,2.47-10.94,4.77-16.28,7.42-6.54,3.25-10.86,9.25-15.75,14.46a56.11,56.11,0,0,1-22.79,14.54A131.59,131.59,0,0,1,99.46,62.8c-6.94.58-13.87.73-20.6-.84C64,58.48,49.5,53.41,35.19,48c-4.21-1.59-8-4.34-10-8.95a56.38,56.38,0,0,0-17-22.28C5.52,14.57,3.11,12,0,10.32Z"/>
        <path class="cls-3" d="M276.6,66.91c-3.65-.07-7.12,1-10.58,2a70.74,70.74,0,0,0-15.51,6,56.57,56.57,0,0,0-13.64,10.48C228.44,94,220,102.67,211.08,110.8c-6.67,6.07-10.5,14.11-13.22,22.79-2.92,9.33-4.84,19-8.94,27.95-2.21,4.83-5,9.3-7.46,14-2.62,5.06-3.73,10.54-4.35,16.17-.9,8.24-1.57,16.55-6.25,23.72a43.06,43.06,0,0,1-8.17,9.22,67.06,67.06,0,0,0-14.78,17.61c-4.67,8.08-10.66,15.08-16.66,22.08a60.61,60.61,0,0,0-13.07,25.35c-.82,3.34-1,6.71-1.58,10H40.24c-.63-1.64-1.29-3.28-1.9-4.93a182.82,182.82,0,0,1-6.72-22.14c-2.13-9.34-3.95-18.75-5.62-28.2-.94-5.3-2.14-10.63-2.36-16-.3-7.51-.15-15-1.84-22.42-.16-.69-.39-1.65.47-2.1s1.42.12,2.07.54a20.21,20.21,0,0,1,6.41,7.59c2.11,3.83,3.79,7.92,6,11.71A68,68,0,0,0,50.21,240c6.08,5.54,12.89,9.44,21.27,9.72a20.76,20.76,0,0,1,5.74,1c5.64,1.87,11.24,3.7,17.21,4.31A38.07,38.07,0,0,0,113,252.69c9.58-4,16.77-10.8,21.72-20.25,3.32-6.32,7.1-12.32,12.34-17.23a69.33,69.33,0,0,0,6.53-7.62c5.71-7.22,8.62-15.59,9.56-24.83a37.79,37.79,0,0,1,8.05-20.34,95.59,95.59,0,0,0,12.69-20.7c2.58-5.75,5.07-11.55,7.71-17.28,3.09-6.71,6.54-13.18,11.66-18.56,3.36-3.53,7.23-6.4,10.86-9.58,5.21-4.58,9.24-10.27,13.48-15.73s8.3-11.15,13.8-15.41c9.09-7,19.45-11.29,30.36-14.07,8.81-2.26,17.88-2.77,26.92-3.36v20.1c-2.26-.41-4.46-1.22-6.8-.93A46.43,46.43,0,0,0,276.6,66.91Z"/>
        <path class="cls-4" d="M0,10.32c3.08,1.67,5.49,4.25,8.2,6.43A56.38,56.38,0,0,1,25.21,39c1.94,4.61,5.77,7.36,10,8.95C49.5,53.41,64,58.48,78.86,62c6.73,1.57,13.66,1.42,20.6.84a131.59,131.59,0,0,0,33.09-7.56A56.11,56.11,0,0,0,155.34,40.7c4.89-5.21,9.21-11.21,15.75-14.46,5.34-2.65,10.85-4.95,16.28-7.42,8.94-4.07,17.85-8.21,26.82-12.21,4.48-2,9.07-3.74,13.61-5.58a3.91,3.91,0,0,0,1.76-1q33.58,0,67.17,0c1.5,0,2,.16,2,2-.12,10.1-.05,20.21-.05,30.32-4.8-.15-9.62.38-14.4-.47-.44-.08-.9-.1-1.33-.22-2.11-.59-2.34-1.36-.82-3,2-2.12,4-4.18,6-6.29a18.89,18.89,0,0,0,1.59-2c3.43-4.64,1.58-8.27-3.74-9.51-5.49-1.29-11-.6-16.51.56a128.73,128.73,0,0,0-32.4,11.84,25.9,25.9,0,0,0-6.23,4.07c2.55-.45,4.73-2,7.25-2.51-.1.83-.75,1.14-1.37,1.38a84.52,84.52,0,0,0-10.64,5.53c-9.87,5.59-18.74,12.43-25.52,21.88-.79,1.09-1.29,2.48-2.69,3,.3-.93.61-1.86.92-2.79l.27-.31-.21-.11-.08.41c-1.68.4-2.59,1.87-3.55,3.08-6.08,7.7-12,15.52-18.07,23.21-4.68,5.94-7.65,12.79-10.49,19.76-2.33,5.74-4.91,11.4-9.38,15.8a24,24,0,0,1-3.93,3.11c-3,1.95-5,.93-5.13-2.71-.18-4.36-.19-8.67,1.54-12.85A81.72,81.72,0,0,0,153,93.48a46.5,46.5,0,0,1,10.29-19c6.65-7.39,12.8-15.25,19.7-22.42C190.28,44.5,198,37.6,207.1,32.35c9.57-5.54,18.66-12,28.55-16.94,7.78-3.9,15.78-7.33,23.45-11.5.86-.47,1.68-1,2.51-1.54.47-.29,1-.65.74-1.28s-1-.6-1.56-.49a51,51,0,0,0-9.48,2.94,257.68,257.68,0,0,0-40.94,21c-5.42,3.34-11.09,6.24-16.53,9.57a54.37,54.37,0,0,0-10.31,8.25,355.1,355.1,0,0,1-27.17,24.46,69.22,69.22,0,0,0-11.64,13,32.53,32.53,0,0,1-22.89,13.78,101.06,101.06,0,0,1-19.34.83,95.15,95.15,0,0,1-30.21-7C58.05,81.71,44.24,75,30.39,68.36c-4.85-2.32-9.76-4.47-14-7.94A24.6,24.6,0,0,1,8.14,47.64c-1-3.63-1.26-7.55-3.61-10.71A9.3,9.3,0,0,0,0,33.23Z"/>
        <path class="cls-1" d="M178.05,299.73c.93-3.56,2.64-6.8,4-10.2q2.85-7.33,5.23-14.86a47.78,47.78,0,0,1,6.15-12.92c4.38-6.32,10.33-10.87,16-15.77,3.36-2.89,6.72-5.79,10.23-8.48a90.92,90.92,0,0,1,13.73-9.21,40.75,40.75,0,0,1,13.51-4c3.35-.44,7,.38,10.35,1.27,4.82,1.29,10.07.21,12-3.16,1.53-2.7,3.11-5.39,4.41-8.21a13.81,13.81,0,0,1,3.21-4.09c1.2-1.19,2.61-1.18,4.16-.61,4.73,1.73,7.34,5.71,10,9.72s4.07,8.88,7.69,12.25v27.59c-2-1.34-3.13-3.61-5.2-4.78-5-2.82-9.94-2.6-14.65.74-2.76,2-5.52,3-9.06,2.29-4.55-1-6.76,1-7.2,5.58a15.51,15.51,0,0,0,0,3.73,219.6,219.6,0,0,0,8.07,33.11Z"/>
        <path class="cls-2" d="M298.69,47.73c-9,.59-18.11,1.1-26.92,3.36-10.91,2.78-21.27,7-30.36,14.07-5.5,4.26-9.54,9.93-13.8,15.41s-8.27,11.15-13.48,15.73c-3.63,3.18-7.5,6-10.86,9.58-5.12,5.38-8.57,11.85-11.66,18.56-2.64,5.73-5.13,11.53-7.71,17.28a95.59,95.59,0,0,1-12.69,20.7,37.79,37.79,0,0,0-8.05,20.34c-.94,9.24-3.85,17.61-9.56,24.83a69.33,69.33,0,0,1-6.53,7.62c-5.24,4.91-9,10.91-12.34,17.23-4.95,9.45-12.14,16.29-21.72,20.25a38.07,38.07,0,0,1-18.58,2.37c-6-.61-11.57-2.44-17.21-4.31a20.76,20.76,0,0,0-5.74-1c-8.38-.28-15.19-4.18-21.27-9.72a68,68,0,0,1-13.5-16.25c-2.17-3.79-3.85-7.88-6-11.71a20.21,20.21,0,0,0-6.41-7.59c-.65-.42-1.31-.93-2.07-.54s-.63,1.41-.47,2.1c1.69,7.39,1.54,14.91,1.84,22.42.22,5.36,1.42,10.69,2.36,16,1.67,9.45,3.49,18.86,5.62,28.2a182.82,182.82,0,0,0,6.72,22.14c.61,1.65,1.27,3.29,1.9,4.93H37.08c.3-2-1-3.49-1.64-5.19A235.26,235.26,0,0,1,28,268.85c-1.42-6.1-2.55-12.23-3.66-18.38-1.06-5.89-1.74-11.83-2.75-17.71-.79-4.59-.59-9.1-.72-13.65a51.28,51.28,0,0,0-3.23-15.89A16.64,16.64,0,0,1,16.28,196c.2-2.25,1.14-2.84,3-1.71a13.59,13.59,0,0,1,1.53,1.34c2.45,2,4.66,4.31,7,6.45a40.28,40.28,0,0,1,9.64,14.44,43.29,43.29,0,0,0,5.32,9.28A49.43,49.43,0,0,0,53.17,236.5c3.3,2.39,6.66,4.58,10.68,5.37,5,1,10.12,1.76,14.86,3.79a63,63,0,0,0,7.46,2.93,35.17,35.17,0,0,0,8.52,1.69c1.85.06,3.54,1,5.48.87a37.06,37.06,0,0,0,22.55-8.45c4.6-3.78,7.61-8.62,10.5-13.71,3.83-6.73,8.9-12.42,14.2-18a46.48,46.48,0,0,0,11.44-19.36,40.58,40.58,0,0,0,1.26-6.55c1-8.84,3.12-17.25,8.87-24.38a109.29,109.29,0,0,0,11.16-17.41c2.76-5.2,5.1-10.58,7.44-15.94a155.11,155.11,0,0,1,7.78-15.72,40.66,40.66,0,0,1,6.39-8.23c5.62-5.69,12.12-10.4,17.13-16.74,2.66-3.36,5.31-6.75,7.83-10.23,5.65-7.78,12.18-14.39,20.67-18.93a108.13,108.13,0,0,1,20-8.12,84.76,84.76,0,0,1,10.86-2.31,108.88,108.88,0,0,1,20.45-1.71Z"/>
        <path class="cls-3" d="M298.69,267.94c0,10.13,0,20.26,0,30.39,0,1.17-.26,1.44-1.39,1.44-7.38-.07-14.76,0-22.14,0-.37-1.25-.77-2.5-1.12-3.76-1.77-6.4-3.81-12.74-3.84-19.5,0-2.81.52-3.49,3.3-3.33a8.64,8.64,0,0,0,6.36-2.42,27.62,27.62,0,0,0,4-4.11c2.35-3.17,8-4.38,11.5-1.42C296.46,266.12,297.58,267,298.69,267.94Z"/>
        <path class="cls-4" d="M298.69,267.94c-1.11-.92-2.23-1.82-3.32-2.75-3.49-3-9.15-1.75-11.5,1.42a27.62,27.62,0,0,1-4,4.11,8.64,8.64,0,0,1-6.36,2.42c-2.78-.16-3.32.52-3.3,3.33,0,6.76,2.07,13.1,3.84,19.5.35,1.26.75,2.51,1.12,3.76h-4.52a219.6,219.6,0,0,1-8.07-33.11,15.51,15.51,0,0,1,0-3.73c.44-4.6,2.65-6.54,7.2-5.58,3.54.75,6.3-.34,9.06-2.29,4.71-3.34,9.63-3.56,14.65-.74,2.07,1.17,3.24,3.44,5.2,4.78Z"/>
        <path class="cls-4" d="M0,177.7a40.27,40.27,0,0,1,3.07,10,75.45,75.45,0,0,0,7.74,21.79A28.16,28.16,0,0,1,14,223.35c0,7.21,1.52,14.16,2.76,21.17,1.46,8.31,3,16.62,4.8,24.85s5.61,15.56,8.52,23.3c.9,2.39,2,4.71,2.94,7.06H30.75c-1.87-4.66-3.64-9.37-5.64-14-4.15-9.49-8.5-18.88-11.17-29A175.82,175.82,0,0,1,8.77,228c-.89-9.66-4.54-18.06-8.74-26.4Z"/>
        <path class="cls-5" d="M19.91,299.73c-6.18,0-12.35,0-18.52,0-1.14,0-1.39-.27-1.39-1.44.05-13.87,0-27.74,0-41.61.57-.09.74.26.93.75.73,1.92,1.47,3.84,2.33,5.7C8.87,275.34,15.41,287,19.91,299.73Z"/>
        <path class="cls-3" d="M26.69,299.73H22.17c-2.25-6.45-4.65-12.84-7.44-19.06C10.64,271.56,6.44,262.51,3.29,253Q1.66,248.08,0,243.16v-29A15.36,15.36,0,0,1,3.59,222c1.23,7,2,14.08,3.31,21.05a179.56,179.56,0,0,0,11.91,38.4C21.47,287.56,24.06,293.65,26.69,299.73Z"/>
        <path class="cls-2" d="M0,123c3.75,1.18,4.29,4.73,5.41,7.85,1.8,5,2.34,10.4,3.68,15.54a47.69,47.69,0,0,0,6.1,13.19C18,164,21,168.32,23.86,172.67a2.06,2.06,0,0,1,.15,2.39,39.06,39.06,0,0,1-6.77-7c-1.8-2.54-3.88-4.83-5.78-7.27C7.05,155.18,3.24,149.25.85,142.4a1.09,1.09,0,0,0-.82-.7Z"/>
        <path class="cls-5" d="M0,201.55c4.2,8.34,7.85,16.74,8.74,26.4a175.82,175.82,0,0,0,5.17,28.81c2.67,10.12,7,19.51,11.17,29,2,4.6,3.77,9.31,5.64,14H29c-2.94-6-5.64-12.1-8.32-18.23a191.34,191.34,0,0,1-9.83-29c-.94-3.66-1.37-7.42-2.08-11.11-.79-4.12-1.6-8.26-2.26-12.4-.55-3.44-.68-7-2-10.21-1.07-2.5-1.67-5.5-4.38-6.95Z"/>
        <path class="cls-2" d="M0,243.16q1.64,4.92,3.26,9.84c3.15,9.51,7.35,18.56,11.44,27.67,2.79,6.22,5.19,12.61,7.44,19.06H19.91c-4.5-12.69-11-24.39-16.62-36.56-.86-1.86-1.6-3.78-2.33-5.7-.19-.49-.36-.84-.93-.75Z"/>
        <path class="cls-2" d="M0,211.84c2.71,1.45,3.31,4.45,4.38,6.95C5.78,222,5.91,225.56,6.46,229c.66,4.14,1.47,8.28,2.26,12.4.71,3.69,1.14,7.45,2.08,11.11a191.34,191.34,0,0,0,9.83,29c2.68,6.13,5.38,12.24,8.32,18.23H26.69c-2.63-6.08-5.22-12.17-7.88-18.24A179.56,179.56,0,0,1,6.9,243.09C5.57,236.12,4.82,229,3.59,222A15.36,15.36,0,0,0,0,214.17Z"/>
        <path class="cls-2" d="M241,32.59c-1.65,2.93-4.45,4.28-6.57,6.38-1.92,1.9-4.15,3.56-5.93,5.52-3.82,4.24-7.79,8.43-10.61,13.55-4.3,7.78-8.47,15.64-13,23.27a37.69,37.69,0,0,1-5.59,7.18,56.33,56.33,0,0,0-12.67,18.67c-2.24,5.59-4.22,11.28-6.74,16.74a118.07,118.07,0,0,1-13.65,23.32c-3.47,4.45-7.18,8.75-10.07,13.67-.56.94-1.42,1.92-2.74.7-1.87-1.72-3.49-1-4.94.74a21.23,21.23,0,0,1-2.29,2.52c-.39.33-.71,1.47-1.58.61a2.12,2.12,0,0,1-.54-2.06c1.6-10.86,7.85-18.79,15.18-26.05a68.73,68.73,0,0,0,15.48-22.54c2.44-5.88,4.65-11.87,7-17.79a31,31,0,0,1,4.36-7.71c6.74-8.53,12.15-17.92,17.47-27.41a61.48,61.48,0,0,1,14.32-17.78c4.57-3.75,9.35-7.34,14.81-9.52C235.2,33.6,237.65,31.51,241,32.59Z"/>
        <path class="cls-2" d="M67.83,208.46a2.58,2.58,0,0,1,2.65.18,3.32,3.32,0,0,0,3.25.16,5.87,5.87,0,0,1,3.26-.55c2.33.16,3.1-1.36,3.5-3.32a11.86,11.86,0,0,1,.16-1.61c.41-1.22.56-2.24,2.59-1.92a118.94,118.94,0,0,1,21.61,5c3.51,1.25,7,2.67,9.86,5.56,3.39,3.42,2.25,12.08-2.11,14.69a19.59,19.59,0,0,1-9.33,2.67,24.66,24.66,0,0,1-9.09-1.89,63.65,63.65,0,0,1-17.79-10.22A65.92,65.92,0,0,1,67.83,208.46Z"/>
        <path class="cls-4" d="M191.56,108.15a28,28,0,0,1,5.52-10.65c5.07-6.12,10.73-11.72,14.59-18.87a166.48,166.48,0,0,1,9.58-16.07c1.28-1.84,2.45-3.85,4.56-5-3.95,7-8,14-11.41,22,3-.88,3.87-3.13,5.17-4.77C226.1,66.57,232.86,58.61,242,53.3a16.59,16.59,0,0,1,5.63-2.38c-1.31.92-2.57,1.91-3.92,2.76-8.07,5.1-14.26,12.24-20.08,19.8-4.63,6-9.06,12.19-14.47,17.5-2.06,2-4.25,3.93-6.47,5.77a56.2,56.2,0,0,0-9.14,9.91A3,3,0,0,1,191.56,108.15Z"/>
        <path class="cls-4" d="M197.92,56.6c1.4-.5,1.9-1.89,2.69-3,6.78-9.45,15.65-16.29,25.52-21.88a84.52,84.52,0,0,1,10.64-5.53c.62-.24,1.27-.55,1.37-1.38a63.7,63.7,0,0,1,19.27-5.07c-2.14,1.39-4.59,1.83-6.92,2.58A124.63,124.63,0,0,0,220.12,37c-8.46,5.55-15.28,12.93-21.07,21.37-3.56,5.19-6.79,10.64-10.75,15.54-.48.59-.76,1.37-1.66,1.4h0c3-5.63,6-11.31,9.93-16.36.15-.32.31-.63.46-1h0c.82-.11.91-.73.9-1.41Z"/>
        <path class="cls-2" d="M38.62,146.44c.7,0,1.1.56,1.54,1,4.29,4,8.37,8.28,12.39,12.6.57.62,1.34,1.46.73,2.09s-1.45-.22-2.09-.75a67,67,0,0,1-12-12.18,10.75,10.75,0,0,1-1.08-1.74A.64.64,0,0,1,38.62,146.44Z"/>
        <path class="cls-4" d="M134.22,159.47c2.32-5.53,4.75-11,8.61-15.62-2.68,4.9-4.53,10.23-7.46,15a1.41,1.41,0,0,1-1.15.64Z"/>
        <path class="cls-6" d="M197.92,56.6c0,.68-.08,1.3-.9,1.41A1.59,1.59,0,0,1,197.92,56.6Z"/>
        <path class="cls-7" d="M143.77,142.88l-.27-.22c.09-.07.17-.16.26-.22s.15.08.15.1A2,2,0,0,1,143.77,142.88Z"/>
        <path class="cls-7" d="M227.12,56.2l-.29.22c0-.06-.09-.15-.08-.16A2.2,2.2,0,0,1,227,56Z"/>
        <path class="cls-4" d="M197,58c-.15.32-.31.63-.46,1C196.71,58.63,196.87,58.32,197,58Z"/>
        <path class="cls-7" d="M186.64,75.31l-.08.41-.2-.11.27-.3Z"/>
        <polygon class="cls-7" points="145.27 140.88 145.22 140.7 145.37 140.72 145.27 140.88"/>
        <path class="cls-7" d="M134.22,159.47l-.07.4-.2-.1.27-.3Z"/>
        <path class="cls-8" d="M276.6,66.91a46.43,46.43,0,0,1,15.29,0Z"/>
        <path class="cls-5" d="M198.82,53.8l.08-.41.21.11-.27.31Z"/>
      </g>
    </g>
  </g>
</svg>
