<svg xmlns="http://www.w3.org/2000/svg" width="166.64" height="162.6" viewBox="0 0 166.64 162.6">
  <defs>
    <style>
      .cls-1-schizophrenie, .cls-3-schizophrenie {
        fill: none;
        stroke-width: 2.83px;
      }

      .cls-1-schizophrenie, .cls-2-schizophrenie, .cls-3-schizophrenie {
        stroke: #fff;
      }

      .cls-1-schizophrenie, .cls-2-schizophrenie {
        stroke-miterlimit: 10;
      }

      .cls-2-schizophrenie {
        fill: #fff;
      }

      .cls-3-schizophrenie {
        stroke-linecap: round;
        stroke-linejoin: round;
      }
    </style>
  </defs>
  <g id="Calque_2" data-name="Calque 2">
    <g id="Calque_3" data-name="Calque 3">
      <g>
        <g>
          <path class="cls-1-schizophrenie" d="M57.13,79.68c1.14-3.38,2.38-6.54,3.69-9.52a16.12,16.12,0,0,1,3.57-27.55A16.13,16.13,0,1,0,38.81,59.18c-1.3,3-2.55,6.14-3.69,9.52A120.45,120.45,0,0,0,29,109.56H51.23A118.68,118.68,0,0,1,57.13,79.68Z"/>
          <path class="cls-1-schizophrenie" d="M103.49,79.77c-1.13-3.37-2.38-6.54-3.68-9.52A16.13,16.13,0,0,0,96.23,42.7a16.13,16.13,0,1,1,25.58,16.57c1.31,3,2.55,6.14,3.69,9.52a120,120,0,0,1,6.16,40.87H109.39A117.87,117.87,0,0,0,103.49,79.77Z"/>
          <path class="cls-2-schizophrenie" d="M93,81.46c-1-3.2-2-6.27-3.11-9.26a16.15,16.15,0,1,0-19.84,0c-1.31,3-2.55,6.14-3.69,9.52a120,120,0,0,0-6.16,40.87h41.08A209.09,209.09,0,0,0,93,81.46Z"/>
        </g>
        <path class="cls-3-schizophrenie" d="M1.42,1.42H134.73a30.49,30.49,0,0,1,30.49,30.49V161.18a0,0,0,0,1,0,0H49.07A47.65,47.65,0,0,1,1.42,113.53V1.42A0,0,0,0,1,1.42,1.42Z"/>
      </g>
    </g>
  </g>
</svg>
