<svg xmlns="http://www.w3.org/2000/svg" width="62.05" height="62.06" viewBox="0 0 62.05 62.06">
  <defs>
    <style>
      .cls-1 {
        fill: #fff;
      }
    </style>
  </defs>
  <g id="Calque_2" data-name="Calque 2">
    <g id="Calque_3" data-name="Calque 3">
      <g>
        <path class="cls-1" d="M29.59,0H32.5c.94.12,1.88.26,2.82.34A2.86,2.86,0,0,1,38,2.45c.35,1.06.79,2.08,1.09,3.15a2.27,2.27,0,0,0,1.84,1.94c.23,0,.44.24.67.27a1.55,1.55,0,0,0,.83,0c1.34-.6,2.67-1.24,4-1.88a2.88,2.88,0,0,1,3.27.36,33.21,33.21,0,0,1,6.16,6.15,2.89,2.89,0,0,1,.36,3.23c-.47,1-.88,2-1.41,2.94a2.43,2.43,0,0,0-.11,2.89,1.44,1.44,0,0,1,.17.45,1,1,0,0,0,.75.76c1.38.46,2.74,1,4.11,1.45a2.91,2.91,0,0,1,2,2.59,31.25,31.25,0,0,1,0,8.64,2.89,2.89,0,0,1-2,2.56c-1.08.39-2.15.83-3.26,1.14a2.34,2.34,0,0,0-2,1.89c0,.21-.21.4-.25.61a1.55,1.55,0,0,0,0,.83c.61,1.36,1.26,2.71,1.91,4.05a2.89,2.89,0,0,1-.38,3.23,33.16,33.16,0,0,1-6.15,6.15,2.89,2.89,0,0,1-3.23.38c-1-.45-1.93-.84-2.83-1.37a2.69,2.69,0,0,0-3.17-.1c-.12.08-.29.08-.39.16s-.52.39-.61.65c-.53,1.37-1,2.77-1.5,4.16a2.9,2.9,0,0,1-2.58,2,30.5,30.5,0,0,1-8.64,0,2.9,2.9,0,0,1-2.59-2c-.36-1-.8-2-1.08-3.09s-.77-1.91-2-2.11a1.5,1.5,0,0,1-.5-.22.9.9,0,0,0-1,0c-1.31.65-2.65,1.27-4,1.9a2.88,2.88,0,0,1-3.23-.36,33.84,33.84,0,0,1-6.16-6.15,2.89,2.89,0,0,1-.38-3.23A21.36,21.36,0,0,1,7.09,44a3.24,3.24,0,0,0,.1-3.89,1.59,1.59,0,0,0-.64-.62c-1.35-.52-2.72-1-4.1-1.47A2.87,2.87,0,0,1,.34,35.32c-.08-1-.22-2-.34-2.94V29.71c.12-1,.26-1.95.34-2.94a2.85,2.85,0,0,1,2.11-2.65c1.07-.36,2.11-.83,3.2-1.12a2.24,2.24,0,0,0,1.89-1.82c0-.23.23-.43.27-.66a1.55,1.55,0,0,0,0-.83C7.17,18.33,6.52,17,5.88,15.64a2.89,2.89,0,0,1,.38-3.23,33.47,33.47,0,0,1,6.15-6.15,2.87,2.87,0,0,1,3.22-.37A27.36,27.36,0,0,1,18.36,7.2a2.87,2.87,0,0,0,3.39.11c.08-.06.2,0,.27-.12s.52-.38.62-.64c.52-1.35,1-2.72,1.47-4.1A2.88,2.88,0,0,1,26.77.34C27.72.26,28.65.12,29.59,0Zm18,50.86c.94-1,1.89-2,2.88-3a.57.57,0,0,0,.09-.78c-.59-1.22-1.15-2.45-1.75-3.66a3.08,3.08,0,0,1,0-2.79c.55-1.21,1-2.45,1.52-3.69a3,3,0,0,1,2-2c1.3-.45,2.59-.93,3.88-1.37.31-.11.47-.24.47-.59q0-1.91,0-3.81a.59.59,0,0,0-.49-.64c-1.28-.43-2.55-.91-3.83-1.34a3.1,3.1,0,0,1-2-2c-.46-1.23-.95-2.45-1.49-3.64a3.07,3.07,0,0,1,0-2.84C49.45,17.48,50,16.25,50.6,15c.14-.29.18-.49-.08-.74-.93-.9-1.84-1.81-2.74-2.74a.5.5,0,0,0-.69-.09c-1.21.59-2.45,1.15-3.66,1.75a3.16,3.16,0,0,1-2.9,0c-1.19-.55-2.4-1-3.63-1.49a3.08,3.08,0,0,1-2-2C34.48,8.44,34,7.18,33.56,5.9c-.1-.29-.22-.48-.58-.48-1.25,0-2.5,0-3.75,0-.46,0-.61.22-.74.6-.43,1.26-.9,2.51-1.33,3.77a3.05,3.05,0,0,1-1.91,2c-1.26.48-2.51,1-3.75,1.53a3.08,3.08,0,0,1-2.79,0c-1.21-.6-2.44-1.15-3.66-1.75a.57.57,0,0,0-.78.11c-.87.9-1.76,1.79-2.66,2.66a.59.59,0,0,0-.1.83c.59,1.2,1.13,2.41,1.72,3.61a3.07,3.07,0,0,1,0,2.84c-.54,1.19-1,2.41-1.49,3.64a3.1,3.1,0,0,1-2,2c-1.3.44-2.59.9-3.87,1.39a.75.75,0,0,0-.42.53c0,1.29,0,2.58,0,3.87,0,.35.16.48.47.59,1.29.44,2.58.92,3.88,1.37a3,3,0,0,1,2,2c.47,1.24,1,2.48,1.52,3.69a3.08,3.08,0,0,1,0,2.79c-.61,1.23-1.2,2.47-1.76,3.72a.7.7,0,0,0,0,.62c1,1.07,2,2.11,3,3.15,1.5-.71,2.85-1.34,4.19-2a3.11,3.11,0,0,1,2.85,0c1.2.55,2.44,1.05,3.69,1.51a3.06,3.06,0,0,1,2,2c.43,1.26.91,2.5,1.32,3.77a.7.7,0,0,0,.77.57c1.23,0,2.46,0,3.69,0,.38,0,.51-.18.62-.5.43-1.26.91-2.51,1.33-3.77A3.11,3.11,0,0,1,37,50.31c1.18-.42,2.34-.9,3.46-1.43a3.26,3.26,0,0,1,3.08,0C44.81,49.56,46.14,50.16,47.62,50.86Z"/>
        <path class="cls-1" d="M43.37,30.41A12.33,12.33,0,1,1,31.05,18.1,12.35,12.35,0,0,1,43.37,30.41ZM31,37.41a7,7,0,1,0-6.91-7.1A7,7,0,0,0,31,37.41Z"/>
      </g>
    </g>
  </g>
</svg>
