<svg xmlns="http://www.w3.org/2000/svg" width="174.74" height="170.5" viewBox="0 0 174.74 170.5">
  <defs>
    <style>
      .cls-1-surdite {
        fill: none;
        stroke: #fff;
        stroke-linecap: round;
        stroke-linejoin: round;
        stroke-width: 2.83px;
      }
    </style>
  </defs>
  <g id="Calque_2" data-name="Calque 2">
    <g id="Calque_3" data-name="Calque 3">
      <g>
        <g>
          <path class="cls-1-surdite" d="M105.44,69.74a24.22,24.22,0,0,0-.59-11.35c-3-9.93-12.56-16.35-21.7-17.88-2.06-.34-11.62-1.94-19.35,3.94-9.48,7.22-9.25,20.62-9.15,27.81.23,14.86,7.42,25.7,21.81,47.37,5.7,8.6,9.42,12.9,14.49,13s10.72-4.15,12.93-9.66a16.49,16.49,0,0,0-.3-12.37"/>
          <path class="cls-1-surdite" d="M96,68.73c-.42-9.36-8.39-16.23-16.6-15.56-8.46.7-13.63,9.12-13.82,15.29-.08,2.67,1,5.16,3.21,10a85.31,85.31,0,0,0,6.85,12.37"/>
          <path class="cls-1-surdite" d="M96.43,87.94c-2.85,2.45-3.59,4.64-3.78,6.11-.59,4.69,3.87,6.8,3.79,12.66,0,.65-.07,5.32-2.9,6.84s-6.86-.84-8.88-2.9c-5.3-5.43-2.23-14.76-2-15.28"/>
          <line class="cls-1-surdite" x1="108.03" y1="33.51" x2="59.36" y2="134.1"/>
        </g>
        <path class="cls-1-surdite" d="M1.42,1.42h139.9a32,32,0,0,1,32,32V169.09a0,0,0,0,1,0,0H51.43a50,50,0,0,1-50-50V1.42A0,0,0,0,1,1.42,1.42Z"/>
      </g>
    </g>
  </g>
</svg>
