<svg xmlns="http://www.w3.org/2000/svg" width="177.42" height="173.12" viewBox="0 0 177.42 173.12">
  <defs>
    <style>
      .cls-1-malvoyance, .cls-2-malvoyance, .cls-4-malvoyance {
        fill: none;
      }

      .cls-1-malvoyance, .cls-2-malvoyance, .cls-3-malvoyance, .cls-4-malvoyance {
        stroke: #fff;
        stroke-width: 2.83px;
      }

      .cls-1-malvoyance, .cls-2-malvoyance, .cls-3-malvoyance {
        stroke-miterlimit: 10;
      }

      .cls-2-malvoyance, .cls-4-malvoyance {
        stroke-linecap: round;
      }

      .cls-3-malvoyance {
        fill: #fff;
      }

      .cls-4-malvoyance {
        stroke-linejoin: round;
      }
    </style>
  </defs>
  <g id="Calque_2" data-name="Calque 2">
    <g id="Calque_3" data-name="Calque 3">
      <g>
        <g>
          <path class="cls-1-malvoyance" d="M26.3,89.05C36.81,66.92,59.77,52.37,85.21,51.73c24.65-.62,47.76,11.89,59.86,32.39-1.13,2.2-17.16,31.95-52.46,36.05A69.78,69.78,0,0,1,26.3,89.05Z"/>
          <line class="cls-2-malvoyance" x1="122.79" y1="34.01" x2="54.81" y2="136"/>
          <line class="cls-2-malvoyance" x1="118.82" y1="59.36" x2="79.64" y2="119.61"/>
          <line class="cls-2-malvoyance" x1="128.55" y1="65.84" x2="93.68" y2="118.92"/>
          <line class="cls-2-malvoyance" x1="137.29" y1="74.49" x2="110.97" y2="115.16"/>
          <path class="cls-3-malvoyance" d="M92.26,78.2a10.37,10.37,0,0,1-2.68-6.69,9.58,9.58,0,0,1,.77-3.83,22.8,22.8,0,0,0-4-.35c-9,0-20.5,7.88-20.7,18.52-.18,9.89,9.52,15.94,10.17,16.33Z"/>
        </g>
        <path class="cls-4-malvoyance" d="M1.42,1.42H143.5A32.5,32.5,0,0,1,176,33.92V171.7a0,0,0,0,1,0,0H52.21A50.79,50.79,0,0,1,1.42,120.91V1.42A0,0,0,0,1,1.42,1.42Z"/>
      </g>
    </g>
  </g>
</svg>
