<svg xmlns="http://www.w3.org/2000/svg" width="174.56" height="170.32" viewBox="0 0 174.56 170.32">
  <defs>
    <style>
      .cls-1, .cls-2 {
        fill: #fff;
      }

      .cls-2 {
        opacity: 0.56;
      }

      .cls-3 {
        fill: none;
        stroke: #fff;
        stroke-linecap: round;
        stroke-linejoin: round;
        stroke-width: 2.83px;
      }
    </style>
  </defs>
  <g id="Calque_2" data-name="Calque 2">
    <g id="Calque_3" data-name="Calque 3">
      <g>
        <g>
          <path class="cls-1" d="M44,107.14h-.12a5.28,5.28,0,0,1-2.72,2.43,12.55,12.55,0,0,1-5,.82c-3.5,0-6.2-1-8.09-2.87a9.08,9.08,0,0,1-3-7,9.35,9.35,0,0,1,2.59-6.77c1.74-1.82,4.27-2.76,7.61-2.8H44V87.51c0-2.86-2.1-4.25-6.44-4.17a10.88,10.88,0,0,0-3.71.51,4.57,4.57,0,0,0-2.24,2L26.64,82c2.39-3.23,5.93-4.8,10.59-4.72q5.93-.06,9.45,2.31t3.59,8.36V110H44Zm0-10.85H36.41c-3.67.08-5.49,1.38-5.44,3.9A3.5,3.5,0,0,0,32.39,103c.91.85,2.41,1.28,4.51,1.28q4,.06,5.6-1c1-.69,1.48-2.25,1.48-4.68Z"/>
          <path class="cls-1" d="M59.45,64.54h6.29V81.07a16.31,16.31,0,0,1,3.77-2.81,9,9,0,0,1,4.32-1q5.78.17,8.42,4.25a8.52,8.52,0,0,1,1.78,4,52.47,52.47,0,0,1,.45,8.29A52.42,52.42,0,0,1,84,102a8.71,8.71,0,0,1-1.78,4.15,9.6,9.6,0,0,1-3.41,3,10.78,10.78,0,0,1-5,1.22,10.61,10.61,0,0,1-8.09-3.76V110H59.45ZM71.93,83.72a5.52,5.52,0,0,0-3.35.91A5.2,5.2,0,0,0,66.68,87a12,12,0,0,0-.76,3.2,34.36,34.36,0,0,0-.18,3.59,35,35,0,0,0,.18,3.51,12,12,0,0,0,.76,3.28,5.18,5.18,0,0,0,1.9,2.38,5.4,5.4,0,0,0,3.35.94,6.31,6.31,0,0,0,3.54-.87,5,5,0,0,0,1.84-2.32,12.15,12.15,0,0,0,.82-3.32q.06-1.74.06-3.6T78.13,90a12,12,0,0,0-.82-3.19,4.55,4.55,0,0,0-1.84-2.32A6.88,6.88,0,0,0,71.93,83.72Z"/>
          <path class="cls-1" d="M115.67,104.8a17,17,0,0,1-4.83,3.94,13.32,13.32,0,0,1-6.44,1.65,13.85,13.85,0,0,1-9.74-3.9q-4.35-3.9-4.46-12.63.12-8.83,4.46-12.79a13.66,13.66,0,0,1,9.75-3.84,14,14,0,0,1,6.43,1.56,16.22,16.22,0,0,1,4.83,4.08L111,87.13a7.8,7.8,0,0,0-6.37-3.41q-8-.12-8.16,10.14.12,10.2,8.16,10a7.63,7.63,0,0,0,6.37-3.38Z"/>
          <path class="cls-1" d="M139.69,106.63a10.57,10.57,0,0,1-8.12,3.76,10.21,10.21,0,0,1-4.86-1.22,10.57,10.57,0,0,1-3.53-3,8.27,8.27,0,0,1-1.72-4.15,46.27,46.27,0,0,1-.51-8.24,46.44,46.44,0,0,1,.51-8.3,8.18,8.18,0,0,1,1.72-4q2.66-4.07,8.39-4.22a9.92,9.92,0,0,1,4.47,1,18.17,18.17,0,0,1,3.65,2.79V64.54H146V110h-6.29Zm-6.2-22.91a6.17,6.17,0,0,0-3.41.78,4.88,4.88,0,0,0-1.9,2.32,11.92,11.92,0,0,0-.76,3.19q-.18,1.84-.18,3.78a35,35,0,0,0,.18,3.6,12.16,12.16,0,0,0,.76,3.32,5.34,5.34,0,0,0,1.9,2.32,5.66,5.66,0,0,0,3.41.87A5.92,5.92,0,0,0,137,103a4.49,4.49,0,0,0,1.78-2.38,12.41,12.41,0,0,0,.82-3.28q.06-1.78.06-3.51c0-1.25,0-2.45-.06-3.59a12.42,12.42,0,0,0-.82-3.2A4.51,4.51,0,0,0,137,84.63,6.07,6.07,0,0,0,133.49,83.72Z"/>
          <path class="cls-2" d="M43.41,103.58h-.12A5.26,5.26,0,0,1,40.58,106a12.59,12.59,0,0,1-5,.81q-5.25-.06-8.09-2.86a9.12,9.12,0,0,1-3-7,9.36,9.36,0,0,1,2.6-6.77q2.59-2.74,7.61-2.8h8.72V84q.06-4.29-6.43-4.17a11.23,11.23,0,0,0-3.72.5,4.62,4.62,0,0,0-2.23,2l-5-3.9q3.6-4.85,10.6-4.72,5.91-.06,9.45,2.31t3.59,8.36v22.11h-6.3Zm0-10.85H35.85q-5.51.12-5.45,3.9a3.51,3.51,0,0,0,1.43,2.81c.9.85,2.4,1.27,4.5,1.27,2.64.05,4.51-.28,5.6-1s1.48-2.25,1.48-4.68Z"/>
          <path class="cls-2" d="M77.62,103.07a10.52,10.52,0,0,1-8.12,3.75,10,10,0,0,1-4.85-1.21,10.57,10.57,0,0,1-3.53-3,8.36,8.36,0,0,1-1.73-4.15,46.27,46.27,0,0,1-.51-8.24,46.44,46.44,0,0,1,.51-8.3,8.24,8.24,0,0,1,1.73-4q2.66-4.06,8.38-4.22a9.92,9.92,0,0,1,4.47,1,17.63,17.63,0,0,1,3.65,2.79V61h6.3v45.47h-6.3ZM71.43,80.16a6.17,6.17,0,0,0-3.41.78,4.87,4.87,0,0,0-1.91,2.31,12.48,12.48,0,0,0-.75,3.2q-.18,1.85-.18,3.78a35.27,35.27,0,0,0,.18,3.6,12.55,12.55,0,0,0,.75,3.32A5.28,5.28,0,0,0,68,99.46a5.59,5.59,0,0,0,3.41.88A5.92,5.92,0,0,0,75,99.4,4.58,4.58,0,0,0,76.75,97a12.41,12.41,0,0,0,.81-3.28q.06-1.78.06-3.51c0-1.25,0-2.45-.06-3.59a12.41,12.41,0,0,0-.81-3.2A4.62,4.62,0,0,0,75,81.06,6.14,6.14,0,0,0,71.43,80.16Z"/>
          <path class="cls-2" d="M115.11,101.24a16.9,16.9,0,0,1-4.84,3.94,13.17,13.17,0,0,1-6.43,1.64,13.88,13.88,0,0,1-9.75-3.89Q89.76,99,89.63,90.3q.12-8.83,4.47-12.79a13.64,13.64,0,0,1,9.75-3.84,14,14,0,0,1,6.43,1.56,16.22,16.22,0,0,1,4.83,4.08l-4.65,4.26a7.83,7.83,0,0,0-6.38-3.41Q96,80,95.92,90.3q.12,10.2,8.16,10A7.62,7.62,0,0,0,110.45,97Z"/>
          <path class="cls-2" d="M120.38,61h6.29V77.51a16.15,16.15,0,0,1,3.78-2.81,9,9,0,0,1,4.32-1q5.76.17,8.42,4.25a8.61,8.61,0,0,1,1.77,4,51,51,0,0,1,.46,8.29,50.9,50.9,0,0,1-.46,8.24,8.63,8.63,0,0,1-1.78,4.14,9.45,9.45,0,0,1-3.41,3,10.73,10.73,0,0,1-13.1-2.54v3.38h-6.29Zm12.49,19.18a5.62,5.62,0,0,0-3.36.9,5.35,5.35,0,0,0-1.9,2.38,12.38,12.38,0,0,0-.75,3.2,31.77,31.77,0,0,0-.19,3.59,32.29,32.29,0,0,0,.19,3.51,12.42,12.42,0,0,0,.75,3.28,5.29,5.29,0,0,0,1.9,2.38,5.43,5.43,0,0,0,3.36.94,6.17,6.17,0,0,0,3.53-.88,5,5,0,0,0,1.85-2.31,12.52,12.52,0,0,0,.81-3.32q.06-1.76.06-3.6t-.06-3.78a12.52,12.52,0,0,0-.81-3.2,4.59,4.59,0,0,0-1.85-2.31A6.82,6.82,0,0,0,132.87,80.16Z"/>
        </g>
        <path class="cls-3" d="M1.42,1.42H141.17a32,32,0,0,1,32,32V168.91a0,0,0,0,1,0,0H51.37a50,50,0,0,1-50-50V1.42A0,0,0,0,1,1.42,1.42Z"/>
      </g>
    </g>
  </g>
</svg>
