<svg xmlns="http://www.w3.org/2000/svg" width="173.69" height="169.48" viewBox="0 0 173.69 169.48">
  <defs>
    <style>
      .cls-1 {
        fill: none;
        stroke: #fff;
        stroke-linecap: round;
        stroke-linejoin: round;
        stroke-width: 2.83px;
      }
    </style>
  </defs>
  <g id="Calque_2" data-name="Calque 2">
    <g id="Calque_3" data-name="Calque 3">
      <g>
        <g>
          <path class="cls-1" d="M30.85,88.56a386.19,386.19,0,0,0,52.52,2.55A387.2,387.2,0,0,0,134,86.76c-6.3,22.24-25.75,38.14-48.19,39.65C61.47,128,38.6,112.46,30.85,88.56Z"/>
          <path class="cls-1" d="M30.85,88.56c-2.57-5-1.09-10.8,2.79-13.35,4.28-2.8,9.46-.33,9.68-.22-4.67-2.32-6.67-6.48-5.6-9,1.22-2.92,6.14-3,6.46-3,5.68-.06,9.13,5.26,9.47,5.8-1.71-4.93.61-9.68,3.87-10.76,3.73-1.25,8,2.55,9.26,6.45,1.53,4.73-1.62,8.86-1.93,9.25a7,7,0,0,1,7.31-2.37c3.29,1.11,5.38,5.34,3.89,9.47,3.81-3.12,8.25-3.77,10.11-2.16,2.16,1.86,2,7.75-2.79,12.49"/>
          <path class="cls-1" d="M101.45,90.45l32.06-28.66,9.68-.86L113.08,89.15"/>
          <path class="cls-1" d="M119.32,88.28l25.17-22.83,6.67,2.79L130.73,87.63"/>
          <path class="cls-1" d="M80.35,76.9c.75-1.05,8.14-11.1,21.09-11.21A26.65,26.65,0,0,1,120,73.38l-7.11,6.73A17.71,17.71,0,0,0,88.1,79.05L87,84.65A33.4,33.4,0,0,1,107.48,84"/>
          <path class="cls-1" d="M127.28,100.35a76,76,0,0,1-37.39,3.79"/>
          <path class="cls-1" d="M117.94,112.17a49.19,49.19,0,0,1-12.59,2.22,48.63,48.63,0,0,1-6.36-.12"/>
        </g>
        <path class="cls-1" d="M1.42,1.42h139a31.81,31.81,0,0,1,31.81,31.81V168.06a0,0,0,0,1,0,0H51.12a49.7,49.7,0,0,1-49.7-49.7V1.42A0,0,0,0,1,1.42,1.42Z"/>
      </g>
    </g>
  </g>
</svg>
